<svg xmlns="http://www.w3.org/2000/svg" viewBox="0 0 217.29 229.43"><defs><style>.cls-1{fill:#123559;}</style></defs><g id="Layer_2" data-name="Layer 2"><g id="Layer_1-2" data-name="Layer 1"><g id="Layer_2-2" data-name="Layer 2"><g id="Layer_1-2-2" data-name="Layer 1-2"><path class="cls-1" d="M6.21,81.44c1.32,2.67,2.07,5,3.45,6.83,6.08,8,14.28,13.34,23.29,17.5,12.42,5.73,25.7,8.35,39.07,10.66,14.62,2.53,29.36,3.47,44.15,3.92a1.88,1.88,0,0,1,1.22.75c1.44,2,2.82,4.09,4.64,6.76l-24-1.25c-.44,3.91-.69,7.86-1.38,11.73A57.24,57.24,0,0,1,83,167.11c-4.56,5.1-6.66,5-10.16-.91-7.8-13-8.76-26.52-2.27-40.39l1.09-2.39c-3.33-.63-6.51-1.25-9.69-1.84C48.25,119,35,114.91,22.71,108A58.56,58.56,0,0,1,5.17,93.5,22.09,22.09,0,0,1,.33,83.78C-1.22,75.61,2.78,69,10.86,66.92a6.59,6.59,0,0,0,4.93-4.11C21.64,50.46,31.48,43,44.67,39.75a122.12,122.12,0,0,1,30.68-4c14.4.26,28.81.27,43.21.61A99.48,99.48,0,0,1,132,37.91a3.35,3.35,0,0,0,3.71-1.33c9-11,19.4-20.43,32.18-27,11.58-5.92,23.76-9.7,36.9-9.58a35.66,35.66,0,0,1,7.83,1,5.79,5.79,0,0,1,4.6,4.79c.41,2.48-1.08,4-2.85,5.49C209.8,15,205,18.58,200.79,22.66a53.05,53.05,0,0,0-14.91,24.71,42.15,42.15,0,0,0-1,7.15c-.34,3.82,1.1,6.82,3.89,9.55,22.68,22.23,28.12,48.75,17.85,78.27-7.94,22.79-24.39,37.72-46.91,46-.57.21-1.13.44-1.94.76,1.74,1.22,3.36,2.27,4.88,3.45,9.45,7.28,15,16.56,14.41,28.84a27.83,27.83,0,0,1-1,5.74,8,8,0,0,1-1.6,2.25c-.76-.61-1.87-1.07-2.23-1.87-2.65-5.92-6.41-10.83-12.15-14.06A41,41,0,0,0,145.73,209c-1-.15-2-.33-3-.43-4.93-.49-9.27-2.07-12.18-6.93-3.51,6.09-9.5,6.43-15.26,7.38a80.51,80.51,0,0,0-8.43,1.81,25.5,25.5,0,0,0-17.62,16c-.43,1.08-.65,2.83-2.33,2.21a4.07,4.07,0,0,1-2.11-2.55c-2.87-11.46,1-21,8.8-29.23,5.65-6,13-8.88,20.71-11.18,4.46-1.34,9-2.61,13.33-4.26,10.53-4,18.09-11.62,24.35-20.7,1.57-2.29,3-4.7,4.59-7.27l-5.86-3.37c-15.1-8.71-25.88-21.23-32.76-37.18a34.31,34.31,0,0,1-1.9-23c-2.66,1.38-4.24,4.5-5,9.9l-2.35-1.91C100.43,91.72,91.86,85.55,81.25,83c-5.13-1.21-10.26-1.8-15.47-.4A16.25,16.25,0,0,1,52.9,81,22.7,22.7,0,0,0,38.33,78Zm143.49,25c8.55,7.63,15.28,16.38,19.27,27.2,5.12,13.84,3.51,26.44-6.18,37.8A61.73,61.73,0,0,1,149,183c-.58.38-1.14.8-2.1,1.47,20.79-2.45,34.46-22.83,28.62-44.85,4.41,11.67,2.5,22.52-4.42,32.77a3.18,3.18,0,0,0,1.23-.68c9.78-8.78,13.51-19.75,11.56-32.64-1.63-10.78-8-18.56-16.47-24.81a42.41,42.41,0,0,0-17.72-7.74ZM124.82,53.81c-1.92-.69-3.95-1.25-5.83-2.14a3.8,3.8,0,0,1-1.86-2.19c-.92-3.3-3.61-5-6.9-4.22a5.88,5.88,0,0,0-4,6.94c.89,2.89,4.54,4.77,7.42,3.22,2.22-1.2,3.87-.7,5.8.13,1.21.53,2.53.83,3.69,1.44a2.4,2.4,0,0,1,1.14,1.6c.58,6.74,5.54,10.68,12.19,9.71A3.44,3.44,0,0,1,139,69q8.58,8.43,17,17c2.91,2.95,3.3,6.3,1.35,10a3.78,3.78,0,0,0,1,4.82,4,4,0,0,0,5.13-.51c1.27-1.43,1.82-3.35.36-4.61-1.89-1.63-1.76-3.53-1.6-5.48A6.62,6.62,0,0,0,160,84.5c-3.66-3.5-7.18-7.13-10.72-10.75-2.65-2.71-5.25-5.47-7.88-8.22,4-5,4.08-10.67,0-14.34C136.4,46.65,131,47.48,124.82,53.81Zm4.77,33.57c-.28,4.12,2.15,6.73,5.44,6.74a5.54,5.54,0,0,0,5.55-5.53v-.14c-.23-3.19-3.34-6-6.27-5-2.43.83-3.56-.2-4.93-1.61-1-1.06-2.08-2.1-3.19-3.08a5,5,0,0,1-2-4.13c0-3.63-4.71-6.12-7.28-3.8-1.86,1.66-3.68,1.57-5.72,1.48-2.26-.09-4.51-.28-6.76-.27a3.92,3.92,0,0,1-3.81-1.91c-1.67-2.5-5.65-2.73-7.9-.78a5.78,5.78,0,0,0-.48,7.82c1.86,2.13,6.18,2.56,7.71.26s3.48-2.14,5.59-2.09,4.2.16,6.3.23c1.69.06,3.24,0,4.24,2a3.71,3.71,0,0,0,3.14,1.55c2.71-.48,3.93,1.31,5.44,2.8,1.33,1.31,2.69,2.59,4,4A7.22,7.22,0,0,1,129.59,87.38Zm44.65-44.06c0,5.74.06,11.33-.06,16.93a5.49,5.49,0,0,1-1.26,2.94,4,4,0,0,0,.15,5.49,4.48,4.48,0,0,0,6.12.07c1.56-1.48,1.47-3.65,0-5.45a5,5,0,0,1-1.14-2.77c-.11-5.29,0-10.58-.09-15.88a6.71,6.71,0,0,1,1.59-4.85,8.08,8.08,0,0,0-.12-10.52,8.65,8.65,0,0,0-10.31-2.58A9,9,0,0,0,164.38,36c.71,4.5,3.71,6.76,9.86,7.28ZM195.47,145.8v-2.52c0-19.08-.07-38.16,0-57.23a7.11,7.11,0,0,1,1.21-3.5c1.08-1.73,1.11-3.53-.24-4.88a4.14,4.14,0,0,0-5.32-.47,3.89,3.89,0,0,0-.74,5.07A8.54,8.54,0,0,1,191.55,86c0,19.23.25,45,.55,54.66,1,2.89,1.9,5.1,3.37,5.1ZM159,60.37c0-3.15-.11-6.09.06-9a5.09,5.09,0,0,1,1.33-2.89c1.49-1.65,2-4,.47-5.18-1.92-1.42-1.93-3.21-1.94-5.15,0-3.35-.07-6.7,0-10,0-.65-4.12,0-3.94,11.71a5.73,5.73,0,0,1-1.19,3A4.16,4.16,0,0,0,154,48.5a4.81,4.81,0,0,1,1.11,2.74c.14,3,0,6,0,9.13Zm20.8,58c.07-.61.13-.89.13-1.16,0-10.28.06-20.55,0-30.83A3.89,3.89,0,0,0,178.84,84c-3.57-3.69-7.29-7.24-10.81-11a7.63,7.63,0,0,1-1.7-3.55c-.47-2.26-1.78-3.87-3.66-3.91a3.85,3.85,0,0,0-3.94,3.27c-.35,2.11.89,3.81,3.16,4.47a5.44,5.44,0,0,1,2.22,1.06c3.55,3.48,7.12,7,10.48,10.63a6.43,6.43,0,0,1,1.52,3.87c.14,7.55.18,15.1,0,22.65-.11,3,1.47,4.82,3.69,6.84ZM100.71,44.5V44c-.74-.14-1.48-.33-2.22-.41a157.34,157.34,0,0,0-36.1.07c-8,1-15.86,2.27-23.28,5.58a28.89,28.89,0,0,0-13.89,12.3c2.25-1.86,4.05-3.59,6.09-5a34.54,34.54,0,0,1,6.57-3.51,115.41,115.41,0,0,1,12.17-4c9.09-2.32,18.4-3,27.74-3.36C85.44,45.43,93.07,44.93,100.71,44.5ZM60.19,75.83c5.69-.24,10.6-2.76,15.4-5.48,1.51-.85,1-2.11-.43-2.53C71,66.59,66.89,65,62.64,64.54c-4.45-.56-8.31,1.61-11.32,4.94a2.31,2.31,0,0,0-.19,2.23C53.58,74.23,56.46,76,60.19,75.83Zm103.94,68.83c-2.88-23.12-19.94-36.93-34.78-41.4C146.87,112.09,158.6,125.77,164.13,144.66ZM90.29,54c0-3.37-2.09-5.59-5.19-5.58a5.39,5.39,0,0,0-5.36,5.42V54a5.13,5.13,0,0,0,5.09,5.17h.31a5,5,0,0,0,5.15-4.84Z"/><path class="cls-1" d="M55.15,105c25.51,6.59,34.15,7.27,52,8.59a18.42,18.42,0,0,1-3.16,1C88.53,114.6,63.71,110.15,55.15,105Z"/><path class="cls-1" d="M52.94,95.49c19,7.34,39.14,9.8,59.22,12.33C106.45,110.84,62.78,101.71,52.94,95.49Z"/><path class="cls-1" d="M140.25,58.23a6,6,0,1,1-12,.89,6.49,6.49,0,0,1,0-1.08,5.86,5.86,0,0,1,5.9-5.82h.1A6.08,6.08,0,0,1,140.25,58.23Z"/><path class="cls-1" d="M114.07,50.94c-.8.62-1.62,1.75-2.38,1.71s-1.59-1.19-2.39-1.85c.73-.82,1.32-2.06,2.22-2.34.62-.19,1.65.94,2.5,1.47Z"/><path class="cls-1" d="M137.55,89.1c-.89.53-1.77,1.43-2.68,1.46-.65,0-1.32-1.14-2-1.78.75-.75,1.41-1.9,2.28-2.1.65-.14,1.58,1,2.38,1.5Z"/><path class="cls-1" d="M96.2,70.55c1.1,1.32,2.21,2.08,2.18,2.79s-1.14,1.47-1.78,2.2c-.74-.65-1.91-1.2-2.09-2S95.35,72,96.2,70.55Z"/><path class="cls-1" d="M173,39.33a5,5,0,0,1-5.07-4.75,5,5,0,0,1,4.94-4.6,4.78,4.78,0,0,1,4.73,4.76A4.6,4.6,0,0,1,173,39.33Z"/><path class="cls-1" d="M87.82,53.84c-1.17,1-1.94,2.12-2.52,2-.8-.13-1.46-1.17-2.19-1.81.68-.71,1.25-1.78,2.06-2C85.72,51.91,86.58,53,87.82,53.84Z"/></g></g></g></g></svg>